{"title":"Peter Frampton ~Frampton Comes Alive II  - DVDrip [DTS 5.1] (Mus","uid":6835378,"size":3137133800,"categoryP":"video","categoryS":"music_videos","magnet":"?xt=urn:btih:505e882d2e62c2f0b1895d81647f77fb909c045a&amp;dn=Peter+Frampton+%7EFrampton+Comes+Alive+II++-+DVDrip+%5BDTS+5.1%5D+%28Mus&amp;tr=udp%3A%2F%2Ftracker.openbittorrent.com%3A80&amp;tr=udp%3A%2F%2Fopen.demonii.com%3A1337&amp;tr=udp%3A%2F%2Ftracker.coppersurfer.tk%3A6969&amp;tr=udp%3A%2F%2Fexodus.desync.com%3A6969","seeders":1,"leechers":0,"uploader":"Filmofiel","files":1,"time":1322007031,"description":"The album contains live versions of many of the songs from his 1980s and 1990s solo albums, consciously avoiding his 1970s hits. It was accompanied by a video release on VHS, recorded at The Fillmore in San Francisco on June 15, 1995.\n\nFrampton Comes Alive! II was released October 10, 1995 on IRS Records. The album reached No. 121 on the UK Albums Chart.\n\nVIDEO INFO\n\n\nFormat                           : AVI\nFormat/Info                      : Audio Video Interleave\nFormat profile                   : OpenDML\nFile size                        : 2.92 GiB\nDuration                         : 2h 7mn\nOverall bit rate                 : 3 293 Kbps\nMovie name                       : Bureaublad.Title1.DVDRip\nWriting application              : Lavf52.78.4\nOriginal source form/Name        : Bureaublad\n\nVideo\nID                               : 0\nFormat                           : MPEG-4 Visual\nFormat profile                   : Advanced Simple@L5\nFormat settings, BVOP            : 2\nFormat settings, QPel            : No\nFormat settings, GMC             : No warppoints\nFormat settings, Matrix          : Default (H.263)\nMuxing mode                      : Packed bitstream\nCodec ID                         : DX50\nCodec ID/Hint                    : DivX 5\nDuration                         : 2h 7mn\nBit rate                         : 2 519 Kbps\nWidth                            : 720 pixels\nHeight                           : 418 pixels\nDisplay aspect ratio             : 16:9\nFrame rate                       : 29.970 fps\nColor space                      : YUV\nChroma subsampling               : 4:2:0\nBit depth                        : 8 bits\nScan type                        : Progressive\nCompression mode                 : Lossy\nBits/(Pixel*Frame)               : 0.279\nStream size                      : 2.24 GiB (77%)\nWriting library                  : XviD 1.2.1 (UTC 2008-12-04)\n\nAudio\nID                               : 1\nFormat                           : DTS\nFormat/Info                      : Digital Theater Systems\nCodec ID                         : 2001\nCodec ID/Info                    : Digital Theater Systems\nDuration                         : 2h 6mn\nBit rate mode                    : Constant\nBit rate                         : 755 Kbps\nChannel(s)                       : 6 channels\nChannel positions                : Front: L C R, Side: L R, LFE\nSampling rate                    : 48.0 KHz\nBit depth                        : 16 bits\nCompression mode                 : Lossy\nStream size                      : 16.6 MiB (1%)\nAlignment                        : Aligned on interleaves\nInterleave, duration             : 440 ms (13.19 video frames)\nInterleave, preload duration     : 10 ms\n\n","torrent":{"xt":"urn:btih:505e882d2e62c2f0b1895d81647f77fb909c045a","amp;dn":"Peter+Frampton+%7EFrampton+Comes+Alive+II++-+DVDrip+%5BDTS+5.1%5D+%28Mus","amp;tr":["udp%3A%2F%2Ftracker.openbittorrent.com%3A80","udp%3A%2F%2Fopen.demonii.com%3A1337","udp%3A%2F%2Ftracker.coppersurfer.tk%3A6969","udp%3A%2F%2Fexodus.desync.com%3A6969"],"infoHash":"505e882d2e62c2f0b1895d81647f77fb909c045a","infoHashBuffer":{"type":"Buffer","data":[80,94,136,45,46,98,194,240,177,137,93,129,100,127,119,251,144,156,4,90]},"announce":[],"urlList":[]}}